# Blender 3.5.0
# www.blender.org
mtllib chair3.mtl
o Cube.004
v 0.181226 0.152847 -0.017437
v 0.188530 0.753382 0.128923
v 0.189538 0.131520 0.069651
v 0.196843 0.732055 0.216013
v 0.249882 0.153566 -0.023815
v 0.257187 0.754101 0.122546
v 0.258195 0.132240 0.063274
v 0.265500 0.732774 0.209636
v 0.189538 0.131520 0.069651
v 0.181226 0.152847 -0.017437
v 0.188530 0.753382 0.128923
v 0.196843 0.732055 0.216013
v 0.258195 0.132240 0.063274
v 0.265500 0.732774 0.209636
v 0.249882 0.153566 -0.023815
v 0.257187 0.754101 0.122546
v 0.192851 0.403882 0.136031
v 0.193530 0.459693 0.149634
v 0.261508 0.404601 0.129654
v 0.262187 0.460413 0.143256
v 0.223303 0.383314 0.461540
v 0.222624 0.327502 0.447938
v 0.291281 0.328222 0.441560
v 0.291960 0.384033 0.455162
v 0.219105 0.055671 0.379395
v 0.226409 0.656205 0.525756
v 0.227417 0.034344 0.466484
v 0.234722 0.634879 0.612846
v 0.287762 0.056390 0.373018
v 0.295065 0.656925 0.519378
v 0.296074 0.035063 0.460106
v 0.303379 0.635598 0.606468
v -0.388666 0.146877 0.035499
v -0.381362 0.747412 0.181859
v -0.380353 0.125551 0.122587
v -0.373048 0.726085 0.268949
v -0.320009 0.147596 0.029121
v -0.312705 0.748131 0.175482
v -0.311697 0.126270 0.116210
v -0.304392 0.726805 0.262572
v -0.380353 0.125551 0.122587
v -0.388666 0.146877 0.035499
v -0.381362 0.747412 0.181859
v -0.373048 0.726085 0.268949
v -0.311697 0.126270 0.116210
v -0.304392 0.726805 0.262572
v -0.320009 0.147596 0.029121
v -0.312705 0.748131 0.175482
v -0.377041 0.397912 0.188967
v -0.376361 0.453724 0.202570
v -0.308384 0.398631 0.182589
v -0.307704 0.454443 0.196192
v -0.346590 0.377344 0.514476
v -0.347268 0.321533 0.500874
v -0.278611 0.322252 0.494496
v -0.277933 0.378063 0.508098
v -0.350788 0.049701 0.432330
v -0.343483 0.650236 0.578692
v -0.342474 0.028375 0.519420
v -0.335170 0.628909 0.665782
v -0.282131 0.050420 0.425953
v -0.274826 0.650955 0.572314
v -0.273818 0.029094 0.513042
v -0.266514 0.629629 0.659404
v 0.272494 0.750463 0.078711
v 0.273501 0.833229 0.098883
v 0.327297 0.609869 0.652850
v 0.328304 0.692635 0.673022
v -0.426332 0.743143 0.143624
v -0.425325 0.825909 0.163796
v -0.371529 0.602548 0.717763
v -0.370523 0.685314 0.737935
v 0.320033 0.628505 0.576744
v 0.321039 0.711272 0.596915
v -0.378793 0.621185 0.641656
v -0.377787 0.703951 0.661828
v 0.320033 0.628505 0.576744
v 0.321039 0.711272 0.596915
v -0.378793 0.621185 0.641656
v -0.377787 0.703951 0.661828
v 0.329802 1.431708 0.772499
v 0.337067 1.413071 0.848605
v -0.361760 1.405751 0.913518
v -0.369024 1.424388 0.837411
v 0.254982 0.795391 -0.104757
v 0.255988 0.878157 -0.084585
v -0.442838 0.870837 -0.019673
v -0.443844 0.788071 -0.039844
vn 0.9957 0.0104 -0.0925
vn -0.0923 0.2368 -0.9672
vn -0.9957 -0.0104 0.0925
vn 0.0923 -0.2368 0.9672
vn 0.0118 0.9715 0.2368
vn -0.0118 -0.9715 -0.2368
vn 0.0504 -0.0000 0.9987
vn 0.0121 0.9715 0.2368
vn 0.0119 0.9715 0.2368
vt 0.375000 0.000000
vt 0.375000 1.000000
vt 0.125000 0.750000
vt 0.625000 0.000000
vt 0.625000 1.000000
vt 0.875000 0.750000
vt 0.375000 0.250000
vt 0.125000 0.500000
vt 0.625000 0.250000
vt 0.875000 0.500000
vt 0.375000 0.750000
vt 0.625000 0.750000
vt 0.375000 0.500000
vt 0.625000 0.500000
vt 0.375000 0.250000
vt 0.125000 0.500000
vt 0.375000 0.000000
vt 0.375000 1.000000
vt 0.125000 0.750000
vt 0.625000 0.000000
vt 0.625000 1.000000
vt 0.875000 0.750000
vt 0.625000 0.250000
vt 0.875000 0.500000
vt 0.375000 0.500000
vt 0.625000 0.500000
vt 0.375000 0.750000
vt 0.625000 0.750000
vt 0.375000 0.250000
vt 0.625000 0.250000
vt 0.375000 0.500000
vt 0.625000 0.500000
vt 0.625000 0.250000
vt 0.375000 0.250000
vt 0.375000 0.500000
vt 0.625000 0.500000
vt 0.375000 0.000000
vt 0.375000 1.000000
vt 0.125000 0.750000
vt 0.625000 0.000000
vt 0.625000 1.000000
vt 0.875000 0.750000
vt 0.375000 0.250000
vt 0.125000 0.500000
vt 0.625000 0.250000
vt 0.875000 0.500000
vt 0.375000 0.750000
vt 0.625000 0.750000
vt 0.375000 0.500000
vt 0.625000 0.500000
vt 0.375000 0.000000
vt 0.375000 1.000000
vt 0.125000 0.750000
vt 0.625000 0.000000
vt 0.625000 1.000000
vt 0.875000 0.750000
vt 0.375000 0.250000
vt 0.125000 0.500000
vt 0.625000 0.250000
vt 0.875000 0.500000
vt 0.375000 0.750000
vt 0.625000 0.750000
vt 0.375000 0.500000
vt 0.625000 0.500000
vt 0.375000 0.250000
vt 0.125000 0.500000
vt 0.375000 0.000000
vt 0.375000 1.000000
vt 0.125000 0.750000
vt 0.625000 0.000000
vt 0.625000 1.000000
vt 0.875000 0.750000
vt 0.625000 0.250000
vt 0.875000 0.500000
vt 0.375000 0.500000
vt 0.625000 0.500000
vt 0.375000 0.750000
vt 0.625000 0.750000
vt 0.375000 0.250000
vt 0.625000 0.250000
vt 0.375000 0.500000
vt 0.625000 0.500000
vt 0.625000 0.250000
vt 0.375000 0.250000
vt 0.375000 0.500000
vt 0.625000 0.500000
vt 0.375000 0.000000
vt 0.375000 1.000000
vt 0.125000 0.750000
vt 0.625000 0.000000
vt 0.625000 1.000000
vt 0.875000 0.750000
vt 0.375000 0.250000
vt 0.125000 0.500000
vt 0.625000 0.250000
vt 0.875000 0.500000
vt 0.375000 0.750000
vt 0.625000 0.750000
vt 0.375000 0.500000
vt 0.625000 0.500000
vt 0.125000 0.750000
vt 0.375000 0.000000
vt 0.875000 0.750000
vt 0.625000 0.000000
vt 0.375000 0.250000
vt 0.125000 0.500000
vt 0.625000 0.250000
vt 0.375000 0.750000
vt 0.625000 0.750000
vt 0.375000 0.500000
vt 0.625000 0.500000
vt 0.375000 0.216861
vt 0.125000 0.533139
vt 0.875000 0.533139
vt 0.625000 0.216861
vt 0.375000 0.533139
vt 0.625000 0.533139
vt 0.375000 0.216861
vt 0.125000 0.533139
vt 0.625000 0.216861
vt 0.875000 0.533139
vt 0.375000 0.533139
vt 0.625000 0.533139
vt 0.875000 0.533139
vt 0.625000 0.216861
vt 0.875000 0.500000
vt 0.625000 0.250000
vt 0.625000 0.500000
vt 0.625000 0.533139
vt 0.125000 0.750000
vt 0.375000 1.000000
vt 0.375000 0.000000
vt 0.625000 1.000000
vt 0.875000 0.750000
vt 0.625000 0.000000
vt 0.625000 0.750000
vt 0.375000 0.750000
s 0
usemtl Material.010
f 1/1/1 2/4/1 4/9/1 3/7/1
f 3/7/2 4/9/2 8/14/2 7/13/2
f 7/13/3 8/14/3 6/12/3 5/11/3
f 5/11/4 6/12/4 2/5/4 1/2/4
f 3/8/5 7/13/5 5/11/5 1/3/5
f 8/14/6 4/10/6 2/6/6 6/12/6
f 10/17/3 9/15/3 12/23/3 11/20/3
f 9/15/4 13/25/4 14/26/4 12/23/4
f 13/25/1 15/27/1 16/28/1 14/26/1
f 15/27/2 10/18/2 11/21/2 16/28/2
f 9/16/6 10/19/6 15/27/6 13/25/6
f 14/26/5 16/28/5 11/22/5 12/24/5
f 17/29/2 18/30/2 20/32/2 19/31/2
f 22/34/4 23/35/4 24/36/4 21/33/4
f 20/32/1 24/36/1 23/35/1 19/31/1
f 19/31/6 23/35/6 22/34/6 17/29/6
f 18/30/5 21/33/5 24/36/5 20/32/5
f 17/29/3 22/34/3 21/33/3 18/30/3
f 25/37/3 27/43/3 28/45/3 26/40/3
f 27/43/4 31/49/4 32/50/4 28/45/4
f 31/49/1 29/47/1 30/48/1 32/50/1
f 29/47/2 25/38/2 26/41/2 30/48/2
f 27/44/6 25/39/6 29/47/6 31/49/6
f 32/50/5 30/48/5 26/42/5 28/46/5
f 33/51/1 34/54/1 36/59/1 35/57/1
f 35/57/2 36/59/2 40/64/2 39/63/2
f 39/63/3 40/64/3 38/62/3 37/61/3
f 37/61/4 38/62/4 34/55/4 33/52/4
f 35/58/5 39/63/5 37/61/5 33/53/5
f 40/64/6 36/60/6 34/56/6 38/62/6
f 42/67/3 41/65/3 44/73/3 43/70/3
f 41/65/4 45/75/4 46/76/4 44/73/4
f 45/75/1 47/77/1 48/78/1 46/76/1
f 47/77/2 42/68/2 43/71/2 48/78/2
f 41/66/6 42/69/6 47/77/6 45/75/6
f 46/76/5 48/78/5 43/72/5 44/74/5
f 49/79/2 50/80/2 52/82/2 51/81/2
f 54/84/4 55/85/4 56/86/4 53/83/4
f 52/82/1 56/86/1 55/85/1 51/81/1
f 51/81/6 55/85/6 54/84/6 49/79/6
f 50/80/5 53/83/5 56/86/5 52/82/5
f 49/79/3 54/84/3 53/83/3 50/80/3
f 57/87/3 59/93/3 60/95/3 58/90/3
f 59/93/4 63/99/4 64/100/4 60/95/4
f 63/99/1 61/97/1 62/98/1 64/100/1
f 61/97/2 57/88/2 58/91/2 62/98/2
f 59/94/6 57/89/6 61/97/6 63/99/6
f 64/100/5 62/98/5 58/92/5 60/96/5
usemtl Material.011
f 73/112/3 67/105/3 68/107/3 74/115/3
f 67/105/2 71/110/2 72/111/2 68/107/2
f 75/116/1 69/108/1 70/109/1 76/117/1
f 65/101/5 85/130/5 88/137/5 69/108/5
f 73/113/5 65/101/5 69/108/5 75/116/5
f 76/117/6 70/109/6 66/103/6 74/114/6
f 72/111/2 83/128/2 82/127/2 68/107/2
f 67/106/5 73/113/5 75/116/5 71/110/5
f 71/110/1 75/116/1 76/117/1 72/111/1
f 65/102/3 73/112/3 74/115/3 66/104/3
f 73/112/7 77/118/5 78/120/7 74/115/8
f 73/113/7 77/119/5 79/122/7 75/116/9
f 75/116/7 79/122/5 80/123/7 76/117/8
f 76/117/7 80/123/9 78/121/7 74/114/5
f 83/128/6 84/129/6 81/124/6 82/126/6
f 74/114/4 81/124/4 84/129/4 76/117/4
f 76/117/1 84/129/1 83/128/1 72/111/1
f 68/107/3 82/127/3 81/125/3 74/115/3
f 88/137/4 85/131/4 86/133/4 87/136/4
f 70/109/6 87/136/6 86/134/6 66/103/6
f 69/108/1 88/137/1 87/136/1 70/109/1
f 66/104/3 86/135/3 85/132/3 65/102/3
