# Blender 3.5.0
# www.blender.org
mtllib floor.mtl
o Plane
v -3.007632 -0.030076 2.977556
v -2.977556 -0.030076 3.007632
v -2.977556 0.000000 2.977556
v 2.977556 -0.030076 3.007632
v 3.007632 -0.030076 2.977556
v 2.977556 0.000000 2.977556
v -3.007632 -0.030076 -2.977556
v -2.977556 0.000000 -2.977556
v -2.977556 -0.030076 -3.007632
v 3.007632 -0.030076 -2.977556
v 2.977556 -0.030076 -3.007632
v 2.977556 0.000000 -2.977556
v -3.007632 -0.270687 2.977556
v -2.977556 -0.300763 2.977556
v -2.977556 -0.270687 3.007632
v 2.977556 -0.270687 3.007632
v 2.977556 -0.300763 2.977556
v 3.007632 -0.270687 2.977556
v -3.007632 -0.270687 -2.977556
v -2.977556 -0.270687 -3.007632
v -2.977556 -0.300763 -2.977556
v 3.007632 -0.270687 -2.977556
v 2.977556 -0.300763 -2.977556
v 2.977556 -0.270687 -3.007632
vn -0.0000 -0.0000 1.0000
vn -0.0000 1.0000 -0.0000
vn 1.0000 -0.0000 -0.0000
vn -0.0000 -0.0000 -1.0000
vn -0.0000 -1.0000 -0.0000
vn -0.5774 0.5774 0.5774
vn 0.5774 0.5774 0.5774
vn -0.5774 0.5774 -0.5774
vn 0.5774 0.5774 -0.5774
vn -0.5774 -0.5774 0.5774
vn 0.5774 -0.5774 0.5774
vn -0.5774 -0.5774 -0.5774
vn 0.5774 -0.5774 -0.5774
vn -0.7071 0.7071 -0.0000
vn -0.0000 0.7071 0.7071
vn 0.7071 0.7071 -0.0000
vn -0.0000 0.7071 -0.7071
vn -0.7071 -0.7071 -0.0000
vn -0.0000 -0.7071 0.7071
vn 0.7071 -0.7071 -0.0000
vn -0.0000 -0.7071 -0.7071
vn -0.7071 -0.0000 0.7071
vn 0.7071 -0.0000 0.7071
vn -0.7071 -0.0000 -0.7071
vn 0.7071 -0.0000 -0.7071
vn -1.0000 -0.0000 -0.0000
vt 0.000000 0.005000
vt 0.005000 0.000000
vt 0.005000 0.005000
vt 0.995000 0.000000
vt 1.000000 0.005000
vt 0.995000 0.005000
vt 0.000000 0.995000
vt 0.005000 0.995000
vt 0.005000 1.000000
vt 1.000000 0.995000
vt 0.995000 1.000000
vt 0.995000 0.995000
vt 0.000000 0.005000
vt 0.005000 0.005000
vt 0.005000 0.000000
vt 0.995000 0.000000
vt 0.995000 0.005000
vt 1.000000 0.005000
vt 0.000000 0.995000
vt 0.005000 1.000000
vt 0.005000 0.995000
vt 1.000000 0.995000
vt 0.995000 0.995000
vt 0.995000 1.000000
s 0
usemtl Material.002
f 4/4/1 2/2/1 15/15/1 16/16/1
f 3/3/2 6/6/2 12/12/2 8/8/2
f 10/10/3 5/5/3 18/18/3 22/22/3
f 9/9/4 11/11/4 24/24/4 20/20/4
f 14/14/5 21/21/5 23/23/5 17/17/5
f 1/1/6 2/2/6 3/3/6
f 4/4/7 5/5/7 6/6/7
f 7/7/8 8/8/8 9/9/8
f 10/10/9 11/11/9 12/12/9
f 13/13/10 14/14/10 15/15/10
f 16/16/11 17/17/11 18/18/11
f 19/19/12 20/20/12 21/21/12
f 22/22/13 23/23/13 24/24/13
f 7/7/14 1/1/14 3/3/14 8/8/14
f 2/2/15 4/4/15 6/6/15 3/3/15
f 5/5/16 10/10/16 12/12/16 6/6/16
f 11/11/17 9/9/17 8/8/17 12/12/17
f 21/21/18 14/14/18 13/13/18 19/19/18
f 14/14/19 17/17/19 16/16/19 15/15/19
f 17/17/20 23/23/20 22/22/20 18/18/20
f 23/23/21 21/21/21 20/20/21 24/24/21
f 1/1/22 13/13/22 15/15/22 2/2/22
f 4/4/23 16/16/23 18/18/23 5/5/23
f 9/9/24 20/20/24 19/19/24 7/7/24
f 10/10/25 22/22/25 24/24/25 11/11/25
f 1/1/26 7/7/26 19/19/26 13/13/26
o Plane.001
v -2.793446 0.068801 2.977556
v -2.788760 0.068801 3.007632
v -2.788760 0.098877 2.977556
v -1.860954 0.068801 3.007632
v -1.856268 0.068801 2.977556
v -1.860954 0.098877 2.977556
v -2.793446 0.068801 -2.977556
v -2.788760 0.098877 -2.977556
v -2.788760 0.068801 -3.007632
v -1.856268 0.068801 -2.977556
v -1.860954 0.068801 -3.007632
v -1.860954 0.098877 -2.977556
v -2.793446 -0.171810 2.977556
v -2.788760 -0.201886 2.977556
v -2.788760 -0.171810 3.007632
v -1.860954 -0.171810 3.007632
v -1.860954 -0.201886 2.977556
v -1.856268 -0.171810 2.977556
v -2.793446 -0.171810 -2.977556
v -2.788760 -0.171810 -3.007632
v -2.788760 -0.201886 -2.977556
v -1.856268 -0.171810 -2.977556
v -1.860954 -0.201886 -2.977556
v -1.860954 -0.171810 -3.007632
v -1.818781 0.068801 2.977556
v -1.814095 0.068801 3.007632
v -1.814095 0.098877 2.977556
v -0.886290 0.068801 3.007632
v -0.881604 0.068801 2.977556
v -0.886290 0.098877 2.977556
v -1.818781 0.068801 -2.977556
v -1.814095 0.098877 -2.977556
v -1.814095 0.068801 -3.007632
v -0.881604 0.068801 -2.977556
v -0.886290 0.068801 -3.007632
v -0.886290 0.098877 -2.977556
v -1.818781 -0.171810 2.977556
v -1.814095 -0.201886 2.977556
v -1.814095 -0.171810 3.007632
v -0.886290 -0.171810 3.007632
v -0.886290 -0.201886 2.977556
v -0.881604 -0.171810 2.977556
v -1.818781 -0.171810 -2.977556
v -1.814095 -0.171810 -3.007632
v -1.814095 -0.201886 -2.977556
v -0.881604 -0.171810 -2.977556
v -0.886290 -0.201886 -2.977556
v -0.886290 -0.171810 -3.007632
v -0.844117 0.068801 2.977556
v -0.839431 0.068801 3.007632
v -0.839431 0.098877 2.977556
v 0.088375 0.068801 3.007632
v 0.093061 0.068801 2.977556
v 0.088375 0.098877 2.977556
v -0.844117 0.068801 -2.977556
v -0.839431 0.098877 -2.977556
v -0.839431 0.068801 -3.007632
v 0.093061 0.068801 -2.977556
v 0.088375 0.068801 -3.007632
v 0.088375 0.098877 -2.977556
v -0.844117 -0.171810 2.977556
v -0.839431 -0.201886 2.977556
v -0.839431 -0.171810 3.007632
v 0.088375 -0.171810 3.007632
v 0.088375 -0.201886 2.977556
v 0.093061 -0.171810 2.977556
v -0.844117 -0.171810 -2.977556
v -0.839431 -0.171810 -3.007632
v -0.839431 -0.201886 -2.977556
v 0.093061 -0.171810 -2.977556
v 0.088375 -0.201886 -2.977556
v 0.088375 -0.171810 -3.007632
v 0.130548 0.068801 2.977556
v 0.135234 0.068801 3.007632
v 0.135234 0.098877 2.977556
v 1.063040 0.068801 3.007632
v 1.067726 0.068801 2.977556
v 1.063040 0.098877 2.977556
v 0.130548 0.068801 -2.977556
v 0.135234 0.098877 -2.977556
v 0.135234 0.068801 -3.007632
v 1.067726 0.068801 -2.977556
v 1.063040 0.068801 -3.007632
v 1.063040 0.098877 -2.977556
v 0.130548 -0.171810 2.977556
v 0.135234 -0.201886 2.977556
v 0.135234 -0.171810 3.007632
v 1.063040 -0.171810 3.007632
v 1.063040 -0.201886 2.977556
v 1.067726 -0.171810 2.977556
v 0.130548 -0.171810 -2.977556
v 0.135234 -0.171810 -3.007632
v 0.135234 -0.201886 -2.977556
v 1.067726 -0.171810 -2.977556
v 1.063040 -0.201886 -2.977556
v 1.063040 -0.171810 -3.007632
v 1.105213 0.068801 2.977556
v 1.109899 0.068801 3.007632
v 1.109899 0.098877 2.977556
v 2.037704 0.068801 3.007632
v 2.042390 0.068801 2.977556
v 2.037704 0.098877 2.977556
v 1.105213 0.068801 -2.977556
v 1.109899 0.098877 -2.977556
v 1.109899 0.068801 -3.007632
v 2.042390 0.068801 -2.977556
v 2.037704 0.068801 -3.007632
v 2.037704 0.098877 -2.977556
v 1.105213 -0.171810 2.977556
v 1.109899 -0.201886 2.977556
v 1.109899 -0.171810 3.007632
v 2.037704 -0.171810 3.007632
v 2.037704 -0.201886 2.977556
v 2.042390 -0.171810 2.977556
v 1.105213 -0.171810 -2.977556
v 1.109899 -0.171810 -3.007632
v 1.109899 -0.201886 -2.977556
v 2.042390 -0.171810 -2.977556
v 2.037704 -0.201886 -2.977556
v 2.037704 -0.171810 -3.007632
v 2.079877 0.068801 2.977556
v 2.084564 0.068801 3.007632
v 2.084564 0.098877 2.977556
v 3.012369 0.068801 3.007632
v 3.017055 0.068801 2.977556
v 3.012369 0.098877 2.977556
v 2.079877 0.068801 -2.977556
v 2.084564 0.098877 -2.977556
v 2.084564 0.068801 -3.007632
v 3.017055 0.068801 -2.977556
v 3.012369 0.068801 -3.007632
v 3.012369 0.098877 -2.977556
v 2.079877 -0.171810 2.977556
v 2.084564 -0.201886 2.977556
v 2.084564 -0.171810 3.007632
v 3.012369 -0.171810 3.007632
v 3.012369 -0.201886 2.977556
v 3.017055 -0.171810 2.977556
v 2.079877 -0.171810 -2.977556
v 2.084564 -0.171810 -3.007632
v 2.084564 -0.201886 -2.977556
v 3.017055 -0.171810 -2.977556
v 3.012369 -0.201886 -2.977556
v 3.012369 -0.171810 -3.007632
vn -0.0000 -0.0000 1.0000
vn -0.0000 1.0000 -0.0000
vn 1.0000 -0.0000 -0.0000
vn -0.0000 -0.0000 -1.0000
vn -0.0000 -1.0000 -0.0000
vn -0.9766 0.1522 0.1522
vn 0.9766 0.1522 0.1522
vn -0.9766 0.1522 -0.1522
vn 0.9766 0.1522 -0.1522
vn -0.9766 -0.1522 0.1522
vn 0.9766 -0.1522 0.1522
vn -0.9766 -0.1522 -0.1522
vn 0.9766 -0.1522 -0.1522
vn -0.9881 0.1539 -0.0000
vn -0.0000 0.7071 0.7071
vn 0.9881 0.1539 -0.0000
vn -0.0000 0.7071 -0.7071
vn -0.9881 -0.1539 -0.0000
vn -0.0000 -0.7071 0.7071
vn 0.9881 -0.1539 -0.0000
vn -0.0000 -0.7071 -0.7071
vn -0.9881 -0.0000 0.1539
vn 0.9881 -0.0000 0.1539
vn -0.9881 -0.0000 -0.1539
vn 0.9881 -0.0000 -0.1539
vn -1.0000 -0.0000 -0.0000
vn 0.9766 0.1522 0.1521
vn 0.9766 0.1522 -0.1521
vn 0.9766 -0.1522 0.1521
vn 0.9766 -0.1522 -0.1521
vn -0.9766 0.1522 0.1521
vn -0.9766 0.1522 -0.1521
vn 0.9881 -0.0000 0.1540
vn 0.9881 -0.0000 -0.1540
vt 0.000000 0.005000
vt 0.005000 0.000000
vt 0.005000 0.005000
vt 0.995000 0.000000
vt 1.000000 0.005000
vt 0.995000 0.005000
vt 0.000000 0.995000
vt 0.005000 0.995000
vt 0.005000 1.000000
vt 1.000000 0.995000
vt 0.995000 1.000000
vt 0.995000 0.995000
vt 0.000000 0.005000
vt 0.005000 0.005000
vt 0.005000 0.000000
vt 0.995000 0.000000
vt 0.995000 0.005000
vt 1.000000 0.005000
vt 0.000000 0.995000
vt 0.005000 1.000000
vt 0.005000 0.995000
vt 1.000000 0.995000
vt 0.995000 0.995000
vt 0.995000 1.000000
vt 0.000000 0.005000
vt 0.005000 0.000000
vt 0.005000 0.005000
vt 0.995000 0.000000
vt 1.000000 0.005000
vt 0.995000 0.005000
vt 0.000000 0.995000
vt 0.005000 0.995000
vt 0.005000 1.000000
vt 1.000000 0.995000
vt 0.995000 1.000000
vt 0.995000 0.995000
vt 0.000000 0.005000
vt 0.005000 0.005000
vt 0.005000 0.000000
vt 0.995000 0.000000
vt 0.995000 0.005000
vt 1.000000 0.005000
vt 0.000000 0.995000
vt 0.005000 1.000000
vt 0.005000 0.995000
vt 1.000000 0.995000
vt 0.995000 0.995000
vt 0.995000 1.000000
vt 0.000000 0.005000
vt 0.005000 0.000000
vt 0.005000 0.005000
vt 0.995000 0.000000
vt 1.000000 0.005000
vt 0.995000 0.005000
vt 0.000000 0.995000
vt 0.005000 0.995000
vt 0.005000 1.000000
vt 1.000000 0.995000
vt 0.995000 1.000000
vt 0.995000 0.995000
vt 0.000000 0.005000
vt 0.005000 0.005000
vt 0.005000 0.000000
vt 0.995000 0.000000
vt 0.995000 0.005000
vt 1.000000 0.005000
vt 0.000000 0.995000
vt 0.005000 1.000000
vt 0.005000 0.995000
vt 1.000000 0.995000
vt 0.995000 0.995000
vt 0.995000 1.000000
vt 0.000000 0.005000
vt 0.005000 0.000000
vt 0.005000 0.005000
vt 0.995000 0.000000
vt 1.000000 0.005000
vt 0.995000 0.005000
vt 0.000000 0.995000
vt 0.005000 0.995000
vt 0.005000 1.000000
vt 1.000000 0.995000
vt 0.995000 1.000000
vt 0.995000 0.995000
vt 0.000000 0.005000
vt 0.005000 0.005000
vt 0.005000 0.000000
vt 0.995000 0.000000
vt 0.995000 0.005000
vt 1.000000 0.005000
vt 0.000000 0.995000
vt 0.005000 1.000000
vt 0.005000 0.995000
vt 1.000000 0.995000
vt 0.995000 0.995000
vt 0.995000 1.000000
vt 0.000000 0.005000
vt 0.005000 0.000000
vt 0.005000 0.005000
vt 0.995000 0.000000
vt 1.000000 0.005000
vt 0.995000 0.005000
vt 0.000000 0.995000
vt 0.005000 0.995000
vt 0.005000 1.000000
vt 1.000000 0.995000
vt 0.995000 1.000000
vt 0.995000 0.995000
vt 0.000000 0.005000
vt 0.005000 0.005000
vt 0.005000 0.000000
vt 0.995000 0.000000
vt 0.995000 0.005000
vt 1.000000 0.005000
vt 0.000000 0.995000
vt 0.005000 1.000000
vt 0.005000 0.995000
vt 1.000000 0.995000
vt 0.995000 0.995000
vt 0.995000 1.000000
vt 0.000000 0.005000
vt 0.005000 0.000000
vt 0.005000 0.005000
vt 0.995000 0.000000
vt 1.000000 0.005000
vt 0.995000 0.005000
vt 0.000000 0.995000
vt 0.005000 0.995000
vt 0.005000 1.000000
vt 1.000000 0.995000
vt 0.995000 1.000000
vt 0.995000 0.995000
vt 0.000000 0.005000
vt 0.005000 0.005000
vt 0.005000 0.000000
vt 0.995000 0.000000
vt 0.995000 0.005000
vt 1.000000 0.005000
vt 0.000000 0.995000
vt 0.005000 1.000000
vt 0.005000 0.995000
vt 1.000000 0.995000
vt 0.995000 0.995000
vt 0.995000 1.000000
s 0
usemtl Material.002
f 28/28/27 26/26/27 39/39/27 40/40/27
f 27/27/28 30/30/28 36/36/28 32/32/28
f 34/34/29 29/29/29 42/42/29 46/46/29
f 33/33/30 35/35/30 48/48/30 44/44/30
f 38/38/31 45/45/31 47/47/31 41/41/31
f 25/25/32 26/26/32 27/27/32
f 28/28/33 29/29/33 30/30/33
f 31/31/34 32/32/34 33/33/34
f 34/34/35 35/35/35 36/36/35
f 37/37/36 38/38/36 39/39/36
f 40/40/37 41/41/37 42/42/37
f 43/43/38 44/44/38 45/45/38
f 46/46/39 47/47/39 48/48/39
f 31/31/40 25/25/40 27/27/40 32/32/40
f 26/26/41 28/28/41 30/30/41 27/27/41
f 29/29/42 34/34/42 36/36/42 30/30/42
f 35/35/43 33/33/43 32/32/43 36/36/43
f 45/45/44 38/38/44 37/37/44 43/43/44
f 38/38/45 41/41/45 40/40/45 39/39/45
f 41/41/46 47/47/46 46/46/46 42/42/46
f 47/47/47 45/45/47 44/44/47 48/48/47
f 25/25/48 37/37/48 39/39/48 26/26/48
f 28/28/49 40/40/49 42/42/49 29/29/49
f 33/33/50 44/44/50 43/43/50 31/31/50
f 34/34/51 46/46/51 48/48/51 35/35/51
f 25/25/52 31/31/52 43/43/52 37/37/52
f 52/52/27 50/50/27 63/63/27 64/64/27
f 51/51/28 54/54/28 60/60/28 56/56/28
f 58/58/29 53/53/29 66/66/29 70/70/29
f 57/57/30 59/59/30 72/72/30 68/68/30
f 62/62/31 69/69/31 71/71/31 65/65/31
f 49/49/32 50/50/32 51/51/32
f 52/52/53 53/53/53 54/54/53
f 55/55/34 56/56/34 57/57/34
f 58/58/54 59/59/54 60/60/54
f 61/61/36 62/62/36 63/63/36
f 64/64/55 65/65/55 66/66/55
f 67/67/38 68/68/38 69/69/38
f 70/70/56 71/71/56 72/72/56
f 55/55/40 49/49/40 51/51/40 56/56/40
f 50/50/41 52/52/41 54/54/41 51/51/41
f 53/53/42 58/58/42 60/60/42 54/54/42
f 59/59/43 57/57/43 56/56/43 60/60/43
f 69/69/44 62/62/44 61/61/44 67/67/44
f 62/62/45 65/65/45 64/64/45 63/63/45
f 65/65/46 71/71/46 70/70/46 66/66/46
f 71/71/47 69/69/47 68/68/47 72/72/47
f 49/49/48 61/61/48 63/63/48 50/50/48
f 52/52/49 64/64/49 66/66/49 53/53/49
f 57/57/50 68/68/50 67/67/50 55/55/50
f 58/58/51 70/70/51 72/72/51 59/59/51
f 49/49/52 55/55/52 67/67/52 61/61/52
f 76/76/27 74/74/27 87/87/27 88/88/27
f 75/75/28 78/78/28 84/84/28 80/80/28
f 82/82/29 77/77/29 90/90/29 94/94/29
f 81/81/30 83/83/30 96/96/30 92/92/30
f 86/86/31 93/93/31 95/95/31 89/89/31
f 73/73/57 74/74/57 75/75/57
f 76/76/33 77/77/33 78/78/33
f 79/79/58 80/80/58 81/81/58
f 82/82/35 83/83/35 84/84/35
f 85/85/36 86/86/36 87/87/36
f 88/88/37 89/89/37 90/90/37
f 91/91/38 92/92/38 93/93/38
f 94/94/39 95/95/39 96/96/39
f 79/79/40 73/73/40 75/75/40 80/80/40
f 74/74/41 76/76/41 78/78/41 75/75/41
f 77/77/42 82/82/42 84/84/42 78/78/42
f 83/83/43 81/81/43 80/80/43 84/84/43
f 93/93/44 86/86/44 85/85/44 91/91/44
f 86/86/45 89/89/45 88/88/45 87/87/45
f 89/89/46 95/95/46 94/94/46 90/90/46
f 95/95/47 93/93/47 92/92/47 96/96/47
f 73/73/48 85/85/48 87/87/48 74/74/48
f 76/76/49 88/88/49 90/90/49 77/77/49
f 81/81/50 92/92/50 91/91/50 79/79/50
f 82/82/51 94/94/51 96/96/51 83/83/51
f 73/73/52 79/79/52 91/91/52 85/85/52
f 100/100/27 98/98/27 111/111/27 112/112/27
f 99/99/28 102/102/28 108/108/28 104/104/28
f 106/106/29 101/101/29 114/114/29 118/118/29
f 105/105/30 107/107/30 120/120/30 116/116/30
f 110/110/31 117/117/31 119/119/31 113/113/31
f 97/97/32 98/98/32 99/99/32
f 100/100/33 101/101/33 102/102/33
f 103/103/34 104/104/34 105/105/34
f 106/106/35 107/107/35 108/108/35
f 109/109/36 110/110/36 111/111/36
f 112/112/37 113/113/37 114/114/37
f 115/115/38 116/116/38 117/117/38
f 118/118/39 119/119/39 120/120/39
f 103/103/40 97/97/40 99/99/40 104/104/40
f 98/98/41 100/100/41 102/102/41 99/99/41
f 101/101/42 106/106/42 108/108/42 102/102/42
f 107/107/43 105/105/43 104/104/43 108/108/43
f 117/117/44 110/110/44 109/109/44 115/115/44
f 110/110/45 113/113/45 112/112/45 111/111/45
f 113/113/46 119/119/46 118/118/46 114/114/46
f 119/119/47 117/117/47 116/116/47 120/120/47
f 97/97/48 109/109/48 111/111/48 98/98/48
f 100/100/49 112/112/49 114/114/49 101/101/49
f 105/105/50 116/116/50 115/115/50 103/103/50
f 106/106/51 118/118/51 120/120/51 107/107/51
f 97/97/52 103/103/52 115/115/52 109/109/52
f 124/124/27 122/122/27 135/135/27 136/136/27
f 123/123/28 126/126/28 132/132/28 128/128/28
f 130/130/29 125/125/29 138/138/29 142/142/29
f 129/129/30 131/131/30 144/144/30 140/140/30
f 134/134/31 141/141/31 143/143/31 137/137/31
f 121/121/32 122/122/32 123/123/32
f 124/124/33 125/125/33 126/126/33
f 127/127/34 128/128/34 129/129/34
f 130/130/35 131/131/35 132/132/35
f 133/133/36 134/134/36 135/135/36
f 136/136/37 137/137/37 138/138/37
f 139/139/38 140/140/38 141/141/38
f 142/142/39 143/143/39 144/144/39
f 127/127/40 121/121/40 123/123/40 128/128/40
f 122/122/41 124/124/41 126/126/41 123/123/41
f 125/125/42 130/130/42 132/132/42 126/126/42
f 131/131/43 129/129/43 128/128/43 132/132/43
f 141/141/44 134/134/44 133/133/44 139/139/44
f 134/134/45 137/137/45 136/136/45 135/135/45
f 137/137/46 143/143/46 142/142/46 138/138/46
f 143/143/47 141/141/47 140/140/47 144/144/47
f 121/121/48 133/133/48 135/135/48 122/122/48
f 124/124/49 136/136/49 138/138/49 125/125/49
f 129/129/50 140/140/50 139/139/50 127/127/50
f 130/130/51 142/142/51 144/144/51 131/131/51
f 121/121/52 127/127/52 139/139/52 133/133/52
f 148/148/27 146/146/27 159/159/27 160/160/27
f 147/147/28 150/150/28 156/156/28 152/152/28
f 154/154/29 149/149/29 162/162/29 166/166/29
f 153/153/30 155/155/30 168/168/30 164/164/30
f 158/158/31 165/165/31 167/167/31 161/161/31
f 145/145/32 146/146/32 147/147/32
f 148/148/33 149/149/33 150/150/33
f 151/151/34 152/152/34 153/153/34
f 154/154/35 155/155/35 156/156/35
f 157/157/36 158/158/36 159/159/36
f 160/160/37 161/161/37 162/162/37
f 163/163/38 164/164/38 165/165/38
f 166/166/39 167/167/39 168/168/39
f 151/151/40 145/145/40 147/147/40 152/152/40
f 146/146/41 148/148/41 150/150/41 147/147/41
f 149/149/42 154/154/42 156/156/42 150/150/42
f 155/155/43 153/153/43 152/152/43 156/156/43
f 165/165/44 158/158/44 157/157/44 163/163/44
f 158/158/45 161/161/45 160/160/45 159/159/45
f 161/161/46 167/167/46 166/166/46 162/162/46
f 167/167/47 165/165/47 164/164/47 168/168/47
f 145/145/48 157/157/48 159/159/48 146/146/48
f 148/148/59 160/160/59 162/162/59 149/149/59
f 153/153/50 164/164/50 163/163/50 151/151/50
f 154/154/60 166/166/60 168/168/60 155/155/60
f 145/145/52 151/151/52 163/163/52 157/157/52
