# Blender 3.5.0
# www.blender.org
mtllib floor2obj.mtl
o Plane
v -3.007632 -0.030076 2.977556
v -2.977556 -0.030076 3.007632
v -2.977556 0.000000 2.977556
v 2.977556 -0.030076 3.007632
v 3.007632 -0.030076 2.977556
v 2.977556 0.000000 2.977556
v -3.007632 -0.030076 -2.977556
v -2.977556 0.000000 -2.977556
v -2.977556 -0.030076 -3.007632
v 3.007632 -0.030076 -2.977556
v 2.977556 -0.030076 -3.007632
v 2.977556 0.000000 -2.977556
v -3.007632 -0.270687 2.977556
v -2.977556 -0.300763 2.977556
v -2.977556 -0.270687 3.007632
v 2.977556 -0.270687 3.007632
v 2.977556 -0.300763 2.977556
v 3.007632 -0.270687 2.977556
v -3.007632 -0.270687 -2.977556
v -2.977556 -0.270687 -3.007632
v -2.977556 -0.300763 -2.977556
v 3.007632 -0.270687 -2.977556
v 2.977556 -0.300763 -2.977556
v 2.977556 -0.270687 -3.007632
vn -0.0000 -0.0000 1.0000
vn -0.0000 1.0000 -0.0000
vn 1.0000 -0.0000 -0.0000
vn -0.0000 -0.0000 -1.0000
vn -0.0000 -1.0000 -0.0000
vn -0.5774 0.5774 0.5774
vn 0.5774 0.5774 0.5774
vn -0.5774 0.5774 -0.5774
vn 0.5774 0.5774 -0.5774
vn -0.5774 -0.5774 0.5774
vn 0.5774 -0.5774 0.5774
vn -0.5774 -0.5774 -0.5774
vn 0.5774 -0.5774 -0.5774
vn -0.7071 0.7071 -0.0000
vn -0.0000 0.7071 0.7071
vn 0.7071 0.7071 -0.0000
vn -0.0000 0.7071 -0.7071
vn -0.7071 -0.7071 -0.0000
vn -0.0000 -0.7071 0.7071
vn 0.7071 -0.7071 -0.0000
vn -0.0000 -0.7071 -0.7071
vn -0.7071 -0.0000 0.7071
vn 0.7071 -0.0000 0.7071
vn -0.7071 -0.0000 -0.7071
vn 0.7071 -0.0000 -0.7071
vn -1.0000 -0.0000 -0.0000
vt 0.000000 0.005000
vt 0.005000 0.000000
vt 0.005000 0.005000
vt 0.995000 0.000000
vt 1.000000 0.005000
vt 0.995000 0.005000
vt 0.000000 0.995000
vt 0.005000 0.995000
vt 0.005000 1.000000
vt 1.000000 0.995000
vt 0.995000 1.000000
vt 0.995000 0.995000
vt 0.000000 0.005000
vt 0.005000 0.005000
vt 0.005000 0.000000
vt 0.995000 0.000000
vt 0.995000 0.005000
vt 1.000000 0.005000
vt 0.000000 0.995000
vt 0.005000 1.000000
vt 0.005000 0.995000
vt 1.000000 0.995000
vt 0.995000 0.995000
vt 0.995000 1.000000
s 0
usemtl Material.001
f 2/2/1 16/16/1 4/4/1
f 6/6/2 8/8/2 3/3/2
f 5/5/3 22/22/3 10/10/3
f 11/11/4 20/20/4 9/9/4
f 21/21/5 17/17/5 14/14/5
f 1/1/6 2/2/6 3/3/6
f 4/4/7 5/5/7 6/6/7
f 7/7/8 8/8/8 9/9/8
f 10/10/9 11/11/9 12/12/9
f 13/13/10 14/14/10 15/15/10
f 16/16/11 17/17/11 18/18/11
f 19/19/12 20/20/12 21/21/12
f 22/22/13 23/23/13 24/24/13
f 1/1/14 8/8/14 7/7/14
f 4/4/15 3/3/15 2/2/15
f 10/10/16 6/6/16 5/5/16
f 9/9/17 12/12/17 11/11/17
f 14/14/18 19/19/18 21/21/18
f 17/17/19 15/15/19 14/14/19
f 23/23/20 18/18/20 17/17/20
f 21/21/21 24/24/21 23/23/21
f 13/13/22 2/2/22 1/1/22
f 16/16/23 5/5/23 4/4/23
f 20/20/24 7/7/24 9/9/24
f 22/22/25 11/11/25 10/10/25
f 7/7/26 13/13/26 1/1/26
f 2/2/1 15/15/1 16/16/1
f 6/6/2 12/12/2 8/8/2
f 5/5/3 18/18/3 22/22/3
f 11/11/4 24/24/4 20/20/4
f 21/21/5 23/23/5 17/17/5
f 1/1/14 3/3/14 8/8/14
f 4/4/15 6/6/15 3/3/15
f 10/10/16 12/12/16 6/6/16
f 9/9/17 8/8/17 12/12/17
f 14/14/18 13/13/18 19/19/18
f 17/17/19 16/16/19 15/15/19
f 23/23/20 22/22/20 18/18/20
f 21/21/21 20/20/21 24/24/21
f 13/13/22 15/15/22 2/2/22
f 16/16/23 18/18/23 5/5/23
f 20/20/24 19/19/24 7/7/24
f 22/22/25 24/24/25 11/11/25
f 7/7/26 19/19/26 13/13/26
