# Blender 3.5.0
# www.blender.org
mtllib roof.mtl
o Cube.001
v -3.413528 5.566742 -1.664088
v -3.413528 7.061224 -1.664088
v -3.413528 5.566742 -3.664088
v -3.413528 7.061224 -3.664088
v 3.251520 5.566742 -1.664088
v 3.251520 7.061224 -1.664088
v 3.251520 5.566742 -3.664088
v 3.251520 7.061224 -3.664088
v -1.684552 5.566742 -3.664088
v -1.684552 7.061224 -3.664088
v -1.684552 5.566742 -1.664088
v -1.684552 7.061224 -1.664088
v -3.413528 5.566742 3.439139
v -3.413528 7.061224 3.439139
v -1.684552 7.061224 3.439139
v -1.684552 5.566742 3.439139
vn -1.0000 -0.0000 -0.0000
vn -0.0000 -0.0000 -1.0000
vn 1.0000 -0.0000 -0.0000
vn -0.0000 -1.0000 -0.0000
vn -0.0000 1.0000 -0.0000
vn -0.0000 -0.0000 1.0000
vt 0.125000 0.750000
vt 0.375000 0.000000
vt 0.625000 0.000000
vt 0.875000 0.750000
vt 0.125000 0.500000
vt 0.375000 0.250000
vt 0.875000 0.500000
vt 0.625000 0.250000
vt 0.375000 0.750000
vt 0.625000 0.750000
vt 0.375000 0.500000
vt 0.625000 0.500000
vt 0.189852 0.500000
vt 0.375000 0.314852
vt 0.810148 0.500000
vt 0.625000 0.314852
vt 0.375000 0.935148
vt 0.189852 0.750000
vt 0.625000 0.935148
vt 0.810148 0.750000
vt 0.375000 1.000000
vt 0.125000 0.750000
vt 0.375000 0.000000
vt 0.625000 1.000000
vt 0.625000 0.000000
vt 0.875000 0.750000
vt 0.625000 0.935148
vt 0.810148 0.750000
vt 0.375000 0.935148
vt 0.189852 0.750000
s 0
usemtl Material
f 1/2/1 2/3/1 4/8/1 3/6/1
f 9/14/2 10/16/2 8/12/2 7/11/2
f 7/11/3 8/12/3 6/10/3 5/9/3
f 11/17/3 12/19/3 15/27/3 16/29/3
f 9/13/4 7/11/4 5/9/4 11/18/4
f 10/15/5 4/7/5 2/4/5 12/20/5
f 8/12/5 10/15/5 12/20/5 6/10/5
f 3/5/4 9/13/4 11/18/4 1/1/4
f 5/9/6 6/10/6 12/19/6 11/17/6
f 3/6/2 4/8/2 10/16/2 9/14/2
f 16/29/6 15/27/6 14/24/6 13/21/6
f 1/1/4 11/18/4 16/30/4 13/22/4
f 2/3/1 1/2/1 13/23/1 14/25/1
f 12/20/5 2/4/5 14/26/5 15/28/5
