# Blender 3.5.0
# www.blender.org
mtllib todo2.mtl
o Cylinder.007
v 0.689430 1.346032 -0.565708
v 0.572363 1.331577 -0.985862
v 0.685722 1.426431 -0.567441
v 0.568656 1.411976 -0.987596
v 0.678058 1.425296 -0.565267
v 0.560992 1.410841 -0.985421
v 0.671247 1.422735 -0.563281
v 0.554181 1.408279 -0.983435
v 0.665044 1.418769 -0.561416
v 0.547978 1.404314 -0.981570
v 0.659688 1.413553 -0.559744
v 0.542621 1.399098 -0.979899
v 0.655383 1.407286 -0.558329
v 0.538317 1.392830 -0.978484
v 0.652296 1.400209 -0.557226
v 0.535230 1.385753 -0.977380
v 0.650546 1.392594 -0.556476
v 0.533479 1.378138 -0.976630
v 0.650198 1.384734 -0.556109
v 0.533132 1.370278 -0.976263
v 0.651268 1.376930 -0.556138
v 0.534201 1.362475 -0.976292
v 0.653713 1.369483 -0.556563
v 0.536647 1.355028 -0.976718
v 0.657440 1.362679 -0.557368
v 0.540374 1.348224 -0.977522
v 0.662306 1.356780 -0.558520
v 0.545239 1.342324 -0.978675
v 0.668123 1.352011 -0.559977
v 0.551056 1.337556 -0.980131
v 0.674668 1.348557 -0.561682
v 0.557601 1.334102 -0.981836
v 0.681689 1.346550 -0.563569
v 0.564623 1.332094 -0.983724
v 0.931951 1.355752 -0.633616
v 0.814884 1.341297 -1.053770
v 0.928244 1.436151 -0.635349
v 0.811177 1.421695 -1.055503
v 0.679896 1.437541 -0.565164
v 0.670261 1.436164 -0.562432
v 0.552659 1.421642 -0.984507
v 0.562294 1.423020 -0.987239
v 0.661088 1.432860 -0.559762
v 0.543486 1.418338 -0.981838
v 0.652729 1.427757 -0.557258
v 0.535127 1.413236 -0.979333
v 0.645505 1.421051 -0.555014
v 0.527903 1.406530 -0.977089
v 0.639694 1.413000 -0.553118
v 0.522092 1.398478 -0.975193
v 0.635519 1.403912 -0.551642
v 0.517917 1.389391 -0.973718
v 0.633141 1.394138 -0.550643
v 0.515539 1.379616 -0.972719
v 0.632651 1.384053 -0.550160
v 0.515049 1.369531 -0.972235
v 0.634068 1.374044 -0.550210
v 0.516466 1.359522 -0.972285
v 0.637337 1.364496 -0.550793
v 0.519735 1.349975 -0.972868
v 0.642333 1.355776 -0.551885
v 0.524731 1.341255 -0.973960
v 0.648863 1.348219 -0.553444
v 0.531262 1.333698 -0.975519
v 0.656678 1.342116 -0.555412
v 0.539076 1.327595 -0.977487
v 0.665476 1.337701 -0.557711
v 0.547874 1.323179 -0.979786
v 0.674919 1.335143 -0.560254
v 0.557318 1.320622 -0.982329
v 0.684645 1.334542 -0.562944
v 0.567044 1.320020 -0.985019
v 0.939614 1.344760 -0.634336
v 0.822012 1.330239 -1.056412
v 0.817263 1.433238 -1.058632
v 0.934864 1.447760 -0.636557
vn -0.1401 0.9901 0.0050
vn -0.3234 0.9445 0.0576
vn -0.4942 0.8626 0.1080
vn -0.6460 0.7476 0.1543
vn -0.7730 0.6038 0.1946
vn -0.8703 0.4368 0.2275
vn -0.9342 0.2530 0.2516
vn -0.9621 0.0595 0.2660
vn -0.9531 -0.1363 0.2702
vn -0.9074 -0.3268 0.2641
vn -0.8269 -0.5048 0.2478
vn -0.7147 -0.6633 0.2219
vn -0.5748 -0.7965 0.1876
vn -0.4130 -0.8990 0.1460
vn -0.2353 -0.9669 0.0988
vn -0.0484 -0.9977 0.0478
vn -0.0461 0.9987 -0.0215
vn 0.0461 -0.9987 0.0215
vn -0.2682 -0.0332 -0.9628
vn 0.2791 -0.0500 0.9590
vn -0.2552 -0.1160 -0.9599
vn 0.2922 -0.0390 0.9556
vn -0.2418 -0.1049 -0.9646
vn 0.3020 -0.0271 0.9529
vn -0.2318 -0.0928 -0.9683
vn 0.3092 -0.0149 0.9509
vn -0.2247 -0.0803 -0.9711
vn 0.3142 -0.0032 0.9494
vn -0.2203 -0.0684 -0.9730
vn 0.3174 0.0082 0.9482
vn -0.2175 -0.0571 -0.9744
vn 0.3192 0.0192 0.9475
vn -0.2160 -0.0464 -0.9753
vn 0.3199 0.0298 0.9470
vn -0.2157 -0.0360 -0.9758
vn 0.3195 0.0403 0.9467
vn -0.2163 -0.0258 -0.9760
vn 0.3182 0.0504 0.9467
vn -0.2180 -0.0150 -0.9758
vn 0.3158 0.0610 0.9469
vn -0.2207 -0.0043 -0.9753
vn 0.3118 0.0722 0.9474
vn -0.2249 0.0067 -0.9744
vn 0.3060 0.0835 0.9483
vn -0.2308 0.0181 -0.9728
vn 0.2978 0.0953 0.9499
vn -0.2388 0.0296 -0.9706
vn 0.2864 0.1067 0.9521
vn -0.2495 0.0406 -0.9675
vn 0.2718 0.1166 0.9553
vn -0.2633 0.0505 -0.9634
vn 0.7890 0.5658 -0.2393
vn 0.8383 -0.5005 -0.2163
vn 0.2713 -0.0547 0.9610
vn -0.2632 -0.1207 -0.9572
vn -0.2713 0.0548 -0.9609
vn 0.2632 0.1208 0.9572
vn -0.2683 -0.0331 -0.9628
vn 0.2683 0.0331 0.9628
vn 0.9622 0.0386 -0.2694
vn -0.1402 0.9901 0.0050
vn -0.7731 0.6037 0.1946
vn -0.7146 -0.6634 0.2219
vn -0.4130 -0.8989 0.1460
vn -0.2352 -0.9669 0.0988
vn -0.0485 -0.9977 0.0478
vn -0.2683 -0.0330 -0.9628
vn -0.2682 -0.0331 -0.9628
vn -0.2684 -0.0332 -0.9627
vn -0.2677 -0.0326 -0.9629
vn -0.2677 -0.0328 -0.9629
vn -0.2680 -0.0331 -0.9629
vn -0.2684 -0.0331 -0.9628
vn -0.2677 -0.0336 -0.9629
vn 0.2794 -0.0500 0.9589
vn -0.2556 -0.1160 -0.9598
vn 0.2932 -0.0389 0.9553
vn -0.2428 -0.1050 -0.9644
vn 0.3034 -0.0266 0.9525
vn -0.2332 -0.0932 -0.9680
vn 0.3105 -0.0142 0.9505
vn -0.2263 -0.0811 -0.9707
vn 0.3153 -0.0023 0.9490
vn -0.2214 -0.0693 -0.9727
vn 0.3182 0.0090 0.9480
vn -0.2182 -0.0579 -0.9742
vn 0.3197 0.0198 0.9473
vn -0.2164 -0.0470 -0.9752
vn 0.3200 0.0300 0.9469
vn -0.2158 -0.0363 -0.9758
vn 0.3194 0.0405 0.9467
vn -0.2162 -0.0260 -0.9760
vn 0.3178 0.0510 0.9468
vn -0.2175 -0.0156 -0.9759
vn 0.3149 0.0618 0.9471
vn -0.2198 -0.0051 -0.9755
vn 0.3106 0.0729 0.9477
vn -0.2237 0.0060 -0.9746
vn 0.3046 0.0842 0.9487
vn -0.2293 0.0174 -0.9732
vn 0.2963 0.0957 0.9503
vn -0.2375 0.0293 -0.9709
vn 0.2854 0.1067 0.9524
vn -0.2486 0.0406 -0.9678
vn 0.2714 0.1165 0.9554
vn -0.2628 0.0507 -0.9635
vn 0.7891 0.5658 -0.2393
vn 0.8382 -0.5006 -0.2163
vn 0.2713 -0.0547 0.9609
vn -0.2713 0.0547 -0.9609
vn 0.2632 0.1206 0.9572
vn 0.2682 0.0331 0.9628
vn 0.2683 0.0332 0.9628
vn 0.2684 0.0330 0.9627
vn 0.2675 0.0333 0.9630
vn 0.2675 0.0331 0.9630
vn 0.2687 0.0332 0.9627
vn 0.2687 0.0337 0.9626
vn 0.2681 0.0329 0.9628
vn 0.2681 0.0330 0.9628
vt 0.054857 0.500000
vt 0.054857 1.000000
vt 0.445143 0.500000
vt 0.445143 1.000000
vt 0.429243 0.500000
vt 0.429243 1.000000
vt 0.406856 0.500000
vt 0.406856 1.000000
vt 0.382086 0.500000
vt 0.382086 1.000000
vt 0.356323 0.500000
vt 0.356323 1.000000
vt 0.330055 0.500000
vt 0.330055 1.000000
vt 0.303501 0.500000
vt 0.303501 1.000000
vt 0.276787 0.500000
vt 0.276787 1.000000
vt 0.250000 0.500000
vt 0.250000 1.000000
vt 0.223213 0.500000
vt 0.223213 1.000000
vt 0.196499 0.500000
vt 0.196499 1.000000
vt 0.169945 0.500000
vt 0.169945 1.000000
vt 0.143677 0.500000
vt 0.143677 1.000000
vt 0.117914 0.500000
vt 0.117914 1.000000
vt 0.093144 0.500000
vt 0.093144 1.000000
vt 0.070757 0.500000
vt 0.070757 1.000000
vt 0.054857 0.500000
vt 0.054857 1.000000
vt 0.445143 0.500000
vt 0.445143 1.000000
vt 0.500000 0.500000
vt 0.468750 0.500000
vt 0.468750 1.000000
vt 0.500000 1.000000
vt 0.437500 0.500000
vt 0.437500 1.000000
vt 0.406250 0.500000
vt 0.406250 1.000000
vt 0.375000 0.500000
vt 0.375000 1.000000
vt 0.343750 0.500000
vt 0.343750 1.000000
vt 0.312500 0.500000
vt 0.312500 1.000000
vt 0.281250 0.500000
vt 0.281250 1.000000
vt 0.250000 0.500000
vt 0.250000 1.000000
vt 0.218750 0.500000
vt 0.218750 1.000000
vt 0.187500 0.500000
vt 0.187500 1.000000
vt 0.156250 0.500000
vt 0.156250 1.000000
vt 0.125000 0.500000
vt 0.125000 1.000000
vt 0.093750 0.500000
vt 0.093750 1.000000
vt 0.062500 0.500000
vt 0.062500 1.000000
vt 0.031250 0.500000
vt 0.031250 1.000000
vt 0.000000 0.500000
vt 0.000000 1.000000
vt 0.000000 0.500000
vt 0.000000 1.000000
vt 0.500000 1.000000
vt 0.500000 0.500000
s 0
usemtl Material.031
f 42/42/1 40/40/1 39/39/1
f 41/41/2 43/43/2 40/40/2
f 44/44/3 45/45/3 43/43/3
f 45/45/4 48/48/4 47/47/4
f 48/48/5 49/49/5 47/47/5
f 50/50/6 51/51/6 49/49/6
f 51/51/7 54/54/7 53/53/7
f 54/54/8 55/55/8 53/53/8
f 55/55/9 58/58/9 57/57/9
f 58/58/10 59/59/10 57/57/10
f 59/59/11 62/62/11 61/61/11
f 61/61/12 64/64/12 63/63/12
f 64/64/13 65/65/13 63/63/13
f 65/65/14 68/68/14 67/67/14
f 67/67/15 70/70/15 69/69/15
f 70/70/16 71/71/16 69/69/16
f 42/42/17 76/76/17 75/75/17
f 72/72/18 73/73/18 71/71/18
f 4/4/19 22/22/19 14/14/19
f 5/5/20 39/39/20 40/40/20
f 6/6/21 42/42/21 4/4/21
f 7/7/22 40/40/22 43/43/22
f 8/8/23 41/41/23 6/6/23
f 9/9/24 43/43/24 45/45/24
f 10/10/25 44/44/25 8/8/25
f 11/11/26 45/45/26 47/47/26
f 12/12/27 46/46/27 10/10/27
f 13/13/28 47/47/28 49/49/28
f 14/14/29 48/48/29 12/12/29
f 15/15/30 49/49/30 51/51/30
f 16/16/31 50/50/31 14/14/31
f 17/17/32 51/51/32 53/53/32
f 18/18/33 52/52/33 16/16/33
f 19/19/34 53/53/34 55/55/34
f 20/20/35 54/54/35 18/18/35
f 19/19/36 57/57/36 21/21/36
f 20/20/37 58/58/37 56/56/37
f 21/21/38 59/59/38 23/23/38
f 22/22/39 60/60/39 58/58/39
f 23/23/40 61/61/40 25/25/40
f 24/24/41 62/62/41 60/60/41
f 25/25/42 63/63/42 27/27/42
f 26/26/43 64/64/43 62/62/43
f 27/27/44 65/65/44 29/29/44
f 28/28/45 66/66/45 64/64/45
f 29/29/46 67/67/46 31/31/46
f 30/30/47 68/68/47 66/66/47
f 31/31/48 69/69/48 33/33/48
f 32/32/49 70/70/49 68/68/49
f 33/33/50 71/71/50 1/1/50
f 34/34/51 72/72/51 70/70/51
f 35/35/52 74/74/52 36/36/52
f 37/37/53 75/75/53 76/76/53
f 37/37/54 39/39/54 3/3/54
f 38/38/55 42/42/55 75/75/55
f 36/36/56 72/72/56 2/2/56
f 35/35/57 71/71/57 73/73/57
f 42/42/61 41/41/61 40/40/61
f 41/41/2 44/44/2 43/43/2
f 44/44/3 46/46/3 45/45/3
f 45/45/4 46/46/4 48/48/4
f 48/48/62 50/50/62 49/49/62
f 50/50/6 52/52/6 51/51/6
f 51/51/7 52/52/7 54/54/7
f 54/54/8 56/56/8 55/55/8
f 55/55/9 56/56/9 58/58/9
f 58/58/10 60/60/10 59/59/10
f 59/59/11 60/60/11 62/62/11
f 61/61/63 62/62/63 64/64/63
f 64/64/13 66/66/13 65/65/13
f 65/65/64 66/66/64 68/68/64
f 67/67/65 68/68/65 70/70/65
f 70/70/66 72/72/66 71/71/66
f 42/42/17 39/39/17 76/76/17
f 72/72/18 74/74/18 73/73/18
f 8/8/67 6/6/67 4/4/67
f 4/4/68 2/2/68 34/34/68
f 34/34/69 32/32/69 30/30/69
f 30/30/70 28/28/70 26/26/70
f 26/26/71 24/24/71 22/22/71
f 22/22/72 20/20/72 18/18/72
f 18/18/73 16/16/73 14/14/73
f 14/14/74 12/12/74 10/10/74
f 10/10/58 8/8/58 4/4/58
f 4/4/58 34/34/58 30/30/58
f 30/30/68 26/26/68 22/22/68
f 22/22/58 18/18/58 14/14/58
f 14/14/67 10/10/67 4/4/67
f 4/4/58 30/30/58 22/22/58
f 5/5/75 3/3/75 39/39/75
f 6/6/76 41/41/76 42/42/76
f 7/7/77 5/5/77 40/40/77
f 8/8/78 44/44/78 41/41/78
f 9/9/79 7/7/79 43/43/79
f 10/10/80 46/46/80 44/44/80
f 11/11/81 9/9/81 45/45/81
f 12/12/82 48/48/82 46/46/82
f 13/13/83 11/11/83 47/47/83
f 14/14/84 50/50/84 48/48/84
f 15/15/85 13/13/85 49/49/85
f 16/16/86 52/52/86 50/50/86
f 17/17/87 15/15/87 51/51/87
f 18/18/88 54/54/88 52/52/88
f 19/19/89 17/17/89 53/53/89
f 20/20/90 56/56/90 54/54/90
f 19/19/91 55/55/91 57/57/91
f 20/20/92 22/22/92 58/58/92
f 21/21/93 57/57/93 59/59/93
f 22/22/94 24/24/94 60/60/94
f 23/23/95 59/59/95 61/61/95
f 24/24/96 26/26/96 62/62/96
f 25/25/97 61/61/97 63/63/97
f 26/26/98 28/28/98 64/64/98
f 27/27/99 63/63/99 65/65/99
f 28/28/100 30/30/100 66/66/100
f 29/29/101 65/65/101 67/67/101
f 30/30/102 32/32/102 68/68/102
f 31/31/103 67/67/103 69/69/103
f 32/32/104 34/34/104 70/70/104
f 33/33/105 69/69/105 71/71/105
f 34/34/106 2/2/106 72/72/106
f 35/35/107 73/73/107 74/74/107
f 37/37/108 38/38/108 75/75/108
f 37/37/109 76/76/109 39/39/109
f 38/38/55 4/4/55 42/42/55
f 36/36/110 74/74/110 72/72/110
f 35/35/111 1/1/111 71/71/111
usemtl Material.032
f 36/36/58 4/4/58 38/38/58
f 3/3/59 35/35/59 37/37/59
f 5/5/59 21/21/59 29/29/59
f 35/35/60 38/38/60 37/37/60
f 36/36/58 2/2/58 4/4/58
f 3/3/59 1/1/59 35/35/59
f 1/1/112 3/3/112 5/5/112
f 5/5/113 7/7/113 9/9/113
f 9/9/114 11/11/114 13/13/114
f 13/13/115 15/15/115 17/17/115
f 17/17/116 19/19/116 21/21/116
f 21/21/117 23/23/117 25/25/117
f 25/25/118 27/27/118 29/29/118
f 29/29/119 31/31/119 33/33/119
f 33/33/59 1/1/59 5/5/59
f 5/5/59 9/9/59 13/13/59
f 13/13/112 17/17/112 21/21/112
f 21/21/120 25/25/120 29/29/120
f 29/29/59 33/33/59 5/5/59
f 5/5/59 13/13/59 21/21/59
f 35/35/60 36/36/60 38/38/60
