# Blender 3.5.0
# www.blender.org
mtllib wall.mtl
o Cube
v -2.981121 0.019424 3.115458
v -2.981121 0.030017 3.126050
v -2.991713 0.030017 3.115458
v -2.981121 6.033154 3.126050
v -2.981121 6.043746 3.115458
v -2.991713 6.033154 3.115458
v -2.991713 0.030017 -2.887680
v -2.981121 0.030017 -2.898272
v -2.981121 0.019424 -2.887680
v -2.981121 6.043746 -2.887680
v -2.981121 6.033154 -2.898272
v -2.991713 6.033154 -2.887680
v 3.022016 0.019424 -2.887680
v 3.022016 0.030017 -2.898272
v 3.032609 0.030017 -2.887680
v 3.022016 6.043746 -2.887680
v 3.032609 6.033154 -2.887680
v 3.022016 6.033154 -2.898272
v -2.550481 0.019424 3.115458
v -2.539889 0.030017 3.115458
v -2.550481 0.030017 3.126050
v -2.550481 6.033154 3.126050
v -2.539889 6.033154 3.115458
v -2.550481 6.043746 3.115458
v -2.550481 0.019424 -2.457040
v -2.529297 0.030017 -2.446448
v -2.539889 0.030017 -2.435855
v -2.539889 6.033154 -2.435855
v -2.529297 6.033154 -2.446448
v -2.550481 6.043746 -2.457040
v 3.022016 0.019424 -2.457040
v 3.032609 0.030017 -2.457040
v 3.022016 0.030017 -2.446448
v 3.022016 6.043746 -2.457040
v 3.022016 6.033154 -2.446448
v 3.032609 6.033154 -2.457040
v 2.419132 3.555862 -2.446448
v 2.429724 3.555862 -2.435855
v 2.419132 3.545270 -2.435855
v 2.320044 3.644358 -2.349457
v 2.341228 3.633766 -2.338865
v 2.330636 3.654950 -2.349457
v -2.014044 3.555862 -2.446447
v -2.014044 3.545270 -2.435855
v -2.024636 3.555862 -2.435855
v -1.914956 3.644358 -2.349457
v -1.925548 3.654950 -2.349457
v -1.936140 3.633765 -2.338865
v 2.419132 4.587377 -2.446448
v 2.419132 4.597969 -2.435855
v 2.429724 4.587377 -2.435855
v 2.320044 4.498881 -2.349457
v 2.330636 4.488289 -2.349457
v 2.341228 4.509473 -2.338865
v -2.014044 4.587377 -2.446447
v -2.024636 4.587377 -2.435855
v -2.014044 4.597969 -2.435855
v -1.925548 4.488289 -2.349457
v -1.914956 4.498881 -2.349457
v -1.936140 4.509473 -2.338865
v 2.429724 3.555862 -2.349457
v 2.419132 3.555862 -2.338865
v 2.419132 3.545270 -2.349457
v -2.014044 3.555862 -2.338865
v -2.024636 3.555862 -2.349457
v -2.014044 3.545270 -2.349457
v -2.014044 4.587377 -2.338865
v -2.014044 4.597969 -2.349457
v -2.024636 4.587377 -2.349457
v 2.419132 4.587377 -2.338865
v 2.429724 4.587377 -2.349457
v 2.419132 4.597969 -2.349457
v 2.320044 3.644358 -2.349457
v 2.330636 3.654950 -2.349457
v 2.320044 3.654950 -2.360049
v -1.914956 3.644358 -2.349457
v -1.914956 3.654950 -2.360049
v -1.925548 3.654950 -2.349457
v -1.925548 4.488289 -2.349457
v -1.914956 4.488289 -2.360049
v -1.914956 4.498881 -2.349457
v 2.320044 4.498881 -2.349457
v 2.320044 4.488289 -2.360049
v 2.330636 4.488289 -2.349457
vn -0.0000 -0.0000 1.0000
vn -0.0000 -1.0000 -0.0000
vn -0.0000 -0.0000 -1.0000
vn -1.0000 -0.0000 -0.0000
vn -0.0000 1.0000 -0.0000
vn 1.0000 -0.0000 -0.0000
vn -0.5774 -0.5774 0.5774
vn -0.5774 0.5774 0.5774
vn -0.5774 -0.5774 -0.5774
vn -0.5774 0.5774 -0.5774
vn 0.5774 -0.5774 -0.5774
vn 0.5774 0.5774 -0.5774
vn 0.5773 -0.5773 0.5774
vn 0.5773 0.5773 0.5774
vn 0.3015 -0.9045 0.3015
vn 0.3015 0.9045 0.3015
vn 0.5773 -0.5774 0.5773
vn 0.5773 0.5774 0.5773
vn 0.5774 -0.5773 -0.5774
vn -0.3015 0.3015 0.9045
vn -0.5773 -0.5774 -0.5774
vn 0.3015 0.3015 0.9045
vn 0.5774 0.5773 -0.5773
vn -0.3015 -0.3015 0.9045
vn -0.5773 0.5774 -0.5773
vn 0.3015 -0.3015 0.9045
vn 0.5774 -0.5773 0.5774
vn -0.5774 -0.5773 0.5774
vn -0.5774 0.5773 0.5774
vn 0.5774 0.5773 0.5773
vn -0.5774 0.5773 0.5773
vn 0.5774 0.5774 0.5773
vn -0.7071 -0.7071 -0.0000
vn -0.7071 -0.0000 0.7071
vn -0.7071 0.7071 -0.0000
vn -0.7071 -0.0000 -0.7071
vn -0.0000 -0.7071 -0.7071
vn -0.0000 0.7071 -0.7071
vn 0.7071 -0.0000 -0.7071
vn 0.7071 -0.7071 -0.0000
vn 0.7071 -0.0000 0.7071
vn 0.7071 0.7071 -0.0000
vn -0.0000 -0.7071 0.7071
vn -0.0000 0.7071 0.7071
vn -0.6691 0.7432 -0.0000
vn 0.6691 0.7432 -0.0000
vn -0.6691 -0.7432 -0.0000
vn 0.6691 -0.7432 -0.0000
vt 0.375000 0.000450
vt 0.375440 0.000000
vt 0.375440 0.000440
vt 0.624560 0.000000
vt 0.625000 0.000450
vt 0.624560 0.000440
vt 0.375440 0.249560
vt 0.375440 0.250440
vt 0.375000 0.250000
vt 0.625000 0.250000
vt 0.624560 0.250440
vt 0.624560 0.249560
vt 0.375000 0.499550
vt 0.375440 0.499560
vt 0.375440 0.500000
vt 0.625000 0.499550
vt 0.624560 0.500000
vt 0.624560 0.499560
vt 0.375000 0.000465
vt 0.375440 0.000475
vt 0.375440 0.000000
vt 0.624560 0.000000
vt 0.624560 0.000475
vt 0.625000 0.000465
vt 0.375000 0.250000
vt 0.375440 0.250475
vt 0.375440 0.249525
vt 0.624560 0.249525
vt 0.624560 0.250475
vt 0.625000 0.250000
vt 0.375000 0.499535
vt 0.375440 0.500000
vt 0.375440 0.499525
vt 0.625000 0.499535
vt 0.624560 0.499525
vt 0.624560 0.500000
vt 0.375000 0.000594
vt 0.127516 0.749406
vt 0.399614 0.997484
vt 0.399614 0.000000
vt 0.127516 0.750000
vt 0.125000 0.749406
vt 0.399614 0.000594
vt 0.851468 0.743844
vt 0.853984 0.745033
vt 0.848953 0.744439
vt 0.127516 0.500594
vt 0.375000 0.249406
vt 0.375000 0.252516
vt 0.399614 0.249406
vt 0.399614 0.250000
vt 0.399614 0.252516
vt 0.851468 0.506156
vt 0.848953 0.505561
vt 0.853984 0.504967
vt 0.372484 0.749406
vt 0.375000 0.749406
vt 0.399614 0.749406
vt 0.399614 0.752515
vt 0.372484 0.750000
vt 0.648532 0.743844
vt 0.651047 0.744439
vt 0.646016 0.745033
vt 0.375000 0.497485
vt 0.372484 0.500594
vt 0.399614 0.497485
vt 0.399614 0.500000
vt 0.399614 0.500594
vt 0.651047 0.505561
vt 0.648532 0.506156
vt 0.646016 0.504967
vt 0.600386 0.997485
vt 0.600386 0.000000
vt 0.872485 0.750000
vt 0.625000 0.000594
vt 0.872485 0.749406
vt 0.873742 0.749703
vt 0.600386 0.000594
vt 0.872485 0.500594
vt 0.625000 0.249406
vt 0.625000 0.252516
vt 0.600386 0.252516
vt 0.600386 0.250000
vt 0.600386 0.249406
vt 0.625000 0.497485
vt 0.627515 0.500594
vt 0.625000 0.500594
vt 0.600386 0.500594
vt 0.626258 0.500297
vt 0.600386 0.497485
vt 0.627515 0.749406
vt 0.600386 0.752515
vt 0.627515 0.750000
vt 0.626258 0.749703
vt 0.600386 0.749406
vt 0.851468 0.743844
vt 0.848953 0.744439
vt 0.848953 0.743844
vt 0.851468 0.506156
vt 0.848953 0.506156
vt 0.848953 0.505561
vt 0.651047 0.505561
vt 0.651047 0.506156
vt 0.648532 0.506156
vt 0.648532 0.743844
vt 0.651047 0.743844
vt 0.651047 0.744439
s 0
usemtl Material.033
f 4/4/1 2/2/1 21/21/1 22/22/1
f 9/9/2 13/13/2 31/31/2 25/25/2
f 26/26/1 33/33/1 35/35/1 29/29/1
f 43/47/3 55/65/3 49/56/3 37/38/3
f 3/3/4 6/6/4 12/12/4 7/7/4
f 10/10/5 5/5/5 24/24/5 30/30/5
f 8/8/3 11/11/3 18/18/3 14/14/3
f 16/16/5 10/10/5 30/30/5 34/34/5
f 15/15/6 17/17/6 36/36/6 32/32/6
f 20/20/6 27/27/6 28/28/6 23/23/6
f 58/69/6 47/54/6 78/101/6 79/102/6
f 52/61/2 59/70/2 81/104/2 82/105/2
f 39/43/2 63/78/2 66/84/2 44/50/2
f 45/52/4 65/82/4 69/90/4 56/66/4
f 42/46/4 53/62/4 84/107/4 74/97/4
f 46/53/5 40/44/5 73/96/5 76/99/5
f 1/1/7 2/2/7 3/3/7
f 4/4/8 5/5/8 6/6/8
f 7/7/9 8/8/9 9/9/9
f 10/10/10 11/11/10 12/12/10
f 13/13/11 14/14/11 15/15/11
f 16/16/12 17/17/12 18/18/12
f 19/19/13 20/20/13 21/21/13
f 22/22/14 23/23/14 24/24/14
f 25/25/15 26/26/15 27/27/15
f 28/28/16 29/29/16 30/30/16
f 31/31/17 32/32/17 33/33/17
f 34/34/18 35/35/18 36/36/18
f 37/38/19 38/41/19 39/42/19
f 40/44/20 41/45/20 42/46/20
f 43/48/21 44/50/21 45/51/21
f 46/53/22 47/54/22 48/55/22
f 49/56/23 50/57/23 51/60/23
f 52/61/24 53/62/24 54/63/24
f 55/64/25 56/66/25 57/67/25
f 58/69/26 59/70/26 60/71/26
f 64/81/28 65/82/28 66/83/28
f 73/96/31 74/97/31 75/98/31
f 76/99/32 77/100/32 78/101/32
f 79/102/17 80/103/17 81/104/17
f 82/105/7 83/106/7 84/107/7
f 9/9/33 1/1/33 3/3/33 7/7/33
f 2/2/34 4/4/34 6/6/34 3/3/34
f 5/5/35 10/10/35 12/12/35 6/6/35
f 11/11/36 8/8/36 7/7/36 12/12/36
f 13/13/37 9/9/37 8/8/37 14/14/37
f 10/10/38 16/16/38 18/18/38 11/11/38
f 17/17/39 15/15/39 14/14/39 18/18/39
f 27/27/40 20/20/40 19/19/40 25/25/40
f 20/20/41 23/23/41 22/22/41 21/21/41
f 23/23/42 28/28/42 30/30/42 24/24/42
f 28/28/41 27/27/41 26/26/41 29/29/41
f 33/33/43 26/26/43 25/25/43 31/31/43
f 29/29/44 35/35/44 34/34/44 30/30/44
f 35/35/41 33/33/41 32/32/41 36/36/41
f 1/1/43 19/19/43 21/21/43 2/2/43
f 4/4/44 22/22/44 24/24/44 5/5/44
f 15/15/40 32/32/40 31/31/40 13/13/40
f 16/16/42 34/34/42 36/36/42 17/17/42
f 43/48/37 37/37/37 39/43/37 44/50/37
f 38/40/40 61/73/40 63/78/40 39/43/40
f 62/75/43 64/80/43 66/84/43 63/78/43
f 65/82/33 45/52/33 44/50/33 66/84/33
f 55/64/36 43/49/36 45/52/36 56/66/36
f 64/81/34 67/85/34 69/90/34 65/82/34
f 49/56/38 55/65/38 57/68/38 50/58/38
f 37/38/39 49/56/39 51/60/39 38/41/39
f 40/44/44 46/53/44 48/55/44 41/45/44
f 47/54/41 58/69/41 60/71/41 48/55/41
f 59/70/43 52/61/43 54/63/43 60/71/43
f 53/62/34 42/46/34 41/45/34 54/63/34
f 42/46/45 74/97/45 73/96/45 40/44/45
f 78/101/46 47/54/46 46/53/46 76/99/46
f 52/61/47 82/105/47 84/107/47 53/62/47
f 81/104/48 59/70/48 58/69/48 79/102/48
f 1/1/2 9/9/2 25/25/2 19/19/2
usemtl Material.006
f 80/103/1 77/100/1 75/98/1 83/106/1
f 75/98/44 77/100/44 76/99/44 73/96/44
f 77/100/41 80/103/41 79/102/41 78/101/41
f 80/103/43 83/106/43 82/105/43 81/104/43
f 83/106/34 75/98/34 74/97/34 84/107/34
usemtl Material.007
f 51/59/6 71/92/6 61/72/6 38/39/6
f 41/45/1 48/55/1 64/79/1 62/76/1
f 57/68/5 68/88/5 72/95/5 50/58/5
f 54/63/1 41/45/1 62/76/1 70/91/1
f 48/55/1 60/71/1 67/86/1 64/79/1
f 60/71/1 54/63/1 70/91/1 67/86/1
f 61/74/27 62/76/27 63/77/27
f 67/86/29 68/87/29 69/89/29
f 70/91/30 71/93/30 72/94/30
f 68/88/35 57/68/35 56/66/35 69/90/35
f 67/86/44 70/91/44 72/95/44 68/88/44
f 71/92/42 51/59/42 50/58/42 72/95/42
f 70/91/41 62/76/41 61/74/41 71/93/41
